<svg xmlns="http://www.w3.org/2000/svg" xmlns:xlink="http://www.w3.org/1999/xlink" width="329" height="66" viewBox="0 0 329 66">
  <defs>
    <linearGradient id="linear-gradient" x1="0.5" x2="0.5" y2="1" gradientUnits="objectBoundingBox">
      <stop offset="0" stop-color="#f2b411"/>
      <stop offset="1" stop-color="#f18f33"/>
    </linearGradient>
    <linearGradient id="linear-gradient-2" x1="0.5" x2="0.5" y2="1" gradientUnits="objectBoundingBox">
      <stop offset="0" stop-color="#fab90d"/>
      <stop offset="1" stop-color="#f18f33"/>
    </linearGradient>
  </defs>
  <g id="logo" transform="translate(-801.992 495.222)">
    <g id="Group_4" data-name="Group 4" transform="translate(801.992 -495.222)">
      <g id="Group_3" data-name="Group 3" transform="translate(0 0)">
        <path id="Path_1" data-name="Path 1" d="M54.133,42.933c1.449-8.9-2.422-18.956-12.62-23.1a2.847,2.847,0,0,0-.469-.172,4.118,4.118,0,0,1-3.586-3.529c-.831-3.475-4.43-4.443-7.983-2.685A6.593,6.593,0,0,1,30.7,12.1c2.974-1.84,6.67-1.088,8.246,2.138,1.2,2.458,2.948,3,5.3,3.282,3.843.46,7.694,1.129,10.969,3.416,1.62,1.132,3.045,2.546,4.534,3.812a9.247,9.247,0,0,0-3.22-4.938c-1.573-1.266-3.286-2.356-5.247-3.742l3,.676a22.858,22.858,0,0,0-13.36-5.269,20.2,20.2,0,0,1,8.884-2.183C46.174,6.147,41.85,6.213,37.73,5.518l4.74-.664A12.319,12.319,0,0,0,33.4,3.7c-3.029.812-5.991,1.873-9.022,2.837,1.474-1.823,3.717-2.725,5.833-4.179A17.707,17.707,0,0,0,20.6,3.556a28.437,28.437,0,0,0-3.9,2.2,2.854,2.854,0,0,0-1.23,2.9L18,5.414V9.728l4.5-2.507.2.281-1.706,3.053.121.418c2.785-.481,5.574-1.005,8.327.369l-2.939.8,2.717,1.5a12.055,12.055,0,0,0-1.539,3.119,11.485,11.485,0,0,0,.5,3.352l-1.7.23a11.7,11.7,0,0,0,1.2,6.348l-3.185-1.126a5.708,5.708,0,0,1-2.921,4.573,2.94,2.94,0,0,1-1.851.33,2.359,2.359,0,0,0-2.864,1.179,10.114,10.114,0,0,0-1.138,2.746A6.343,6.343,0,0,1,12.3,39.2a5.231,5.231,0,0,0-1.477,1.461,13.676,13.676,0,0,0-.962,1.588c-2.006-2.687-3.338-5.434-3.33-8.8l4.756-.6c.165-.021.368.019.49-.064A11.616,11.616,0,0,0,13.845,31.2c.109-.118-.454-1.1-.892-1.444a2.18,2.18,0,0,0-2.679.014,10.767,10.767,0,0,0-1.011.932c-1.689,1.456-3.457,1.584-5.029.036A18.642,18.642,0,0,1,1.57,27c-.524-.87-.108-1.664.605-2.341a15.9,15.9,0,0,0,1.283-1.551l-.351-.288L1.323,25.13C-.185,24.265-.452,22.9.773,21.771c1.473-1.353,3.093-2.543,4.607-3.852A10.578,10.578,0,0,0,7.267,15.94a12.275,12.275,0,0,1,5.861-4.3c.563-.233,1.085-.569,1.611-.85-1.582-4.148-.458-6.921,3.383-9.006C21.8-.208,25.741-.154,29.69.171a48.953,48.953,0,0,1,17.47,4.786,27.645,27.645,0,0,1,8.455,6.6l-6.46-.835-.226.516a20.141,20.141,0,0,1,11.023,9.587,27.005,27.005,0,0,1,3.135,14.358c-2.19-3.951-3.556-8.448-7.82-10.837a21.168,21.168,0,0,1,4.6,9.177c1.441,7.155-.522,13.542-4.669,19.311C51.725,57.664,46.872,60.7,41.389,63.12c.815-5.509,2.669-10.889.363-16.377-.146,4.643-.759,9.155-3.8,12.887S30.8,65.04,26.046,66c1.128-2.432.4-4.389-.906-6.256-.959-1.368-1.831-2.8-2.83-4.137a9.45,9.45,0,0,1-2.09-7.515,4.634,4.634,0,0,0,.005-.756,5.665,5.665,0,0,0-1.82,4.4,21.489,21.489,0,0,0,3.576,11.217c.151.25.332.481.495.725.02.031.01.082.028.278a21.516,21.516,0,0,1-7.937-4.042c-6.775-5.633-7.3-13.944-1.275-20.8A25.761,25.761,0,0,1,23.668,31.7c.428-.159.827-.395,1.252-.564a7.391,7.391,0,0,0,5.114-6.416,4.463,4.463,0,0,1,.145,4.724c-1.11,2.17-3.066,3.329-5.1,4.445a52.437,52.437,0,0,0-6.862,4.059A13.736,13.736,0,0,0,13.2,52.828a9.585,9.585,0,0,0,3.312,4.91,20.521,20.521,0,0,1-1.6-9.3l1.051,1.946C17.6,40.957,24.643,37.039,32.092,33.5c-1.9,2.28-3.9,4.48-5.662,6.865A33.83,33.83,0,0,0,23,46.137a7.542,7.542,0,0,0,.653,7.443c.506.817,1.05,1.612,1.615,2.389,2.1,2.882,2.481,3.808,2.937,7.409,2.249-3.3,2.035-6.511.435-9.818,1.99,1.461,2.752,3.629,3.633,6.1.994-3.215.378-6.009-.478-8.864,1.181.772,1.664,1.642,3.079,5.428,1.166-2.442.75-6.928-1-12.717.382.672.79,1.331,1.139,2.02.4.783.755,1.587,1.106,2.392A22.179,22.179,0,0,0,37.178,50.2,26.163,26.163,0,0,0,35,35.45c5.5,1.473,10.835,10.368,11.723,19.338,1.3-1.877.674-6.326-2.08-14.8a10.271,10.271,0,0,1,3.9,4.6c.882,1.832,1.556,3.765,2.388,5.816.837-6.49.4-12.6-3.48-18.249,2.5,1.382,3.719,3.379,6.691,10.78M12.874,18l6.5-1.171q0-.187,0-.373l-2.784-.831.427-.911-.189-.147L12.874,18m12.079-.376c1.633-1.412,2.05-3.151,1.034-4.308a2.174,2.174,0,0,0-3.395.028c3.01.531,3.01.531,2.36,4.28" transform="translate(0 0)" fill="url(#linear-gradient)"/>
        <path id="Path_2" data-name="Path 2" d="M139.641,98.014c-2.389-2.071-4.719-4.185-7.153-6.174-2.567-2.1-3.7-3.58-4.5-6.343l8.848,7.942.436-.384-3.737-5.2,3.8,2.96.2-.158-3.195-4.731,1.877.685c-1.06-2.163-2.9-3.326-4.7-4.649,6.307.231,10.656,9.19,8.127,16.051" transform="translate(-96.019 -61.276)" fill="url(#linear-gradient-2)"/>
        <path id="Path_3" data-name="Path 3" d="M123.982,57.624c1.465,0,3.728,2.287,3.652,3.764a1.958,1.958,0,0,1-.547,1.018,1.993,1.993,0,0,1-.759.413c-2.02.837-2.021.834-2.955-1.115-.287-.6-.58-1.2-.863-1.8a1.507,1.507,0,0,1,1.472-2.281" transform="translate(-91.761 -43.106)" fill="url(#linear-gradient-2)"/>
      </g>
    </g>
    <text id="National_Social_Benefits_Portal" data-name="National Social Benefits Portal" transform="translate(877.992 -465.318)" font-size="16" font-family="Georgia-Bold, Georgia" font-weight="700"><tspan x="0" y="0">National Social Benefits Portal</tspan></text>
    <text id="Providing_what_matters_the_most" data-name="Providing what matters the most" transform="translate(877.999 -447.117)" fill="#707070" font-size="13" font-family="Inter-Regular, Inter"><tspan x="0" y="0">Providing what matters the most</tspan></text>
  </g>
</svg>
